<svg version="1.1" id="Layer_1" xmlns="http://www.w3.org/2000/svg" xmlns:xlink="http://www.w3.org/1999/xlink" x="0px" y="0px"
	 width="100%" viewBox="0 0 2667 2667" enable-background="new 0 0 2667 2667" xml:space="preserve">

  <defs>
    <clipPath id="circle-clip">
      <circle cx="1333.5" cy="1333.5" r="1333.5" />
    </clipPath>
  </defs>

  <g clip-path="url(#circle-clip)">
<path fill="#7D0000" opacity="1.000000" stroke="none" 
		d="
M1238.000000,2670.000000 
	C825.333313,2670.000000 413.666656,2670.000000 2.000000,2670.000000 
	C2.000000,1780.666626 2.000000,891.333313 2.000000,2.000000 
	C891.333313,2.000000 1780.666626,2.000000 2670.000000,2.000000 
	C2670.000000,891.333313 2670.000000,1780.666626 2670.000000,2670.000000 
	C2193.000000,2670.000000 1716.000000,2670.000000 1238.000000,2670.000000 
M1117.173828,1412.159546 
	C1122.625610,1384.996582 1126.029785,1357.581543 1126.356812,1329.870850 
	C1126.879883,1285.563843 1127.691040,1241.246582 1127.233521,1196.945557 
	C1126.785889,1153.582642 1122.847412,1110.476807 1111.998779,1068.276001 
	C1093.936157,998.013306 1059.852051,936.963196 1004.010132,890.084351 
	C917.315491,817.304810 817.577759,794.907410 708.519531,823.550171 
	C605.124268,850.705688 530.600098,914.000305 488.810608,1013.590210 
	C469.249084,1060.207886 461.805115,1109.483887 458.240265,1159.524780 
	C454.375366,1213.777344 454.562073,1268.084473 456.451416,1322.383545 
	C457.388916,1349.328003 459.071777,1376.229614 463.607727,1402.932617 
	C478.495148,1490.573975 519.187927,1563.193115 588.377930,1619.450562 
	C646.605225,1666.794312 712.963196,1691.096558 788.317017,1690.124634 
	C815.431030,1689.774902 842.078552,1686.089966 868.415894,1679.955200 
	C935.944946,1664.225952 993.596802,1631.803345 1038.195190,1578.025024 
	C1078.091675,1529.916626 1102.524170,1474.257690 1117.173828,1412.159546 
M2199.195312,1499.783447 
	C2197.262939,1497.491333 2195.385742,1495.149902 2193.390137,1492.914062 
	C2135.230713,1427.746948 2031.863037,1421.643799 1968.043335,1480.534546 
	C1924.314819,1520.885620 1909.895508,1571.870728 1920.204712,1629.635132 
	C1935.646362,1716.157104 2024.598999,1773.313721 2110.098633,1752.894531 
	C2222.921875,1725.949829 2270.069824,1590.255005 2199.195312,1499.783447 
M1617.485596,1672.764038 
	C1613.841431,1673.124512 1610.204590,1673.667969 1606.551880,1673.817261 
	C1566.611084,1675.450684 1526.677490,1677.343750 1486.723145,1678.539917 
	C1416.405029,1680.645386 1346.149658,1678.433350 1275.924683,1674.696045 
	C1263.295654,1674.023926 1250.606079,1673.780151 1237.969482,1674.162109 
	C1225.843872,1674.528442 1219.576660,1678.920166 1217.070801,1689.157959 
	C1212.846191,1706.416016 1212.416870,1724.087891 1213.784058,1741.746094 
	C1214.302124,1748.437744 1218.500122,1752.745728 1225.086426,1754.042847 
	C1229.962036,1755.003052 1234.964233,1755.567383 1239.932251,1755.771851 
	C1282.204590,1757.513062 1324.470581,1759.551758 1366.760132,1760.705444 
	C1480.108765,1763.797974 1593.257690,1761.695679 1705.755371,1745.581543 
	C1714.951904,1744.264160 1724.120239,1742.381592 1733.093262,1739.981812 
	C1741.342285,1737.775757 1746.555664,1731.684326 1746.088623,1723.122314 
	C1745.093262,1704.876587 1743.517334,1686.637085 1741.359253,1668.492676 
	C1740.504761,1661.308960 1736.933838,1659.150024 1729.337036,1659.277100 
	C1723.369873,1659.376587 1717.404541,1660.285156 1711.461670,1661.021362 
	C1680.739380,1664.827637 1650.024414,1668.694092 1617.485596,1672.764038 
z"/>
<path fill="#FEFEFE" opacity="1.000000" stroke="none" 
		d="
M1116.917969,1412.960571 
	C1102.524170,1474.257690 1078.091675,1529.916626 1038.195190,1578.025024 
	C993.596802,1631.803345 935.944946,1664.225952 868.415894,1679.955200 
	C842.078552,1686.089966 815.431030,1689.774902 788.317017,1690.124634 
	C712.963196,1691.096558 646.605225,1666.794312 588.377930,1619.450562 
	C519.187927,1563.193115 478.495148,1490.573975 463.607727,1402.932617 
	C459.071777,1376.229614 457.388916,1349.328003 456.451416,1322.383545 
	C454.562073,1268.084473 454.375366,1213.777344 458.240265,1159.524780 
	C461.805115,1109.483887 469.249084,1060.207886 488.810608,1013.590210 
	C530.600098,914.000305 605.124268,850.705688 708.519531,823.550171 
	C817.577759,794.907410 917.315491,817.304810 1004.010132,890.084351 
	C1059.852051,936.963196 1093.936157,998.013306 1111.998779,1068.276001 
	C1122.847412,1110.476807 1126.785889,1153.582642 1127.233521,1196.945557 
	C1127.691040,1241.246582 1126.879883,1285.563843 1126.356812,1329.870850 
	C1126.029785,1357.581543 1122.625610,1384.996582 1116.917969,1412.960571 
M753.471313,1583.988403 
	C787.813477,1589.737183 821.865845,1588.587646 855.341187,1578.751831 
	C927.682800,1557.496460 975.315491,1509.814575 1001.918640,1440.186157 
	C1017.697937,1398.887207 1022.150757,1355.389893 1023.323547,1311.788818 
	C1024.711670,1260.183716 1023.673889,1208.513184 1023.636963,1156.870972 
	C1023.634827,1153.887085 1023.208862,1150.900635 1022.927673,1147.920288 
	C1020.378174,1120.903931 1012.986694,1095.018799 1004.508301,1069.395508 
	C976.624207,985.124451 903.507690,920.096436 805.989563,915.029480 
	C738.394897,911.517273 679.244019,931.701965 631.425293,980.880188 
	C602.762756,1010.357483 584.027283,1045.732300 572.050964,1084.811646 
	C559.263245,1126.538574 555.648438,1169.618774 553.773193,1212.913086 
	C553.082153,1228.866455 551.692322,1244.903687 552.608582,1260.787964 
	C554.332886,1290.681030 557.214294,1320.518921 560.147827,1350.327271 
	C563.187073,1381.209717 569.245300,1411.514771 580.209900,1440.656250 
	C600.064331,1493.424683 632.978455,1535.047485 683.845276,1561.153076 
	C705.307983,1572.168091 728.133301,1579.187256 753.471313,1583.988403 
z"/>
<path fill="#FEFDFD" opacity="1.000000" stroke="none" 
		d="
M2199.631592,1500.344116 
	C2270.069824,1590.255005 2222.921875,1725.949829 2110.098633,1752.894531 
	C2024.598999,1773.313721 1935.646362,1716.157104 1920.204712,1629.635132 
	C1909.895508,1571.870728 1924.314819,1520.885620 1968.043335,1480.534546 
	C2031.863037,1421.643799 2135.230713,1427.746948 2193.390137,1492.914062 
	C2195.385742,1495.149902 2197.262939,1497.491333 2199.631592,1500.344116 
M2041.569946,1520.197998 
	C2034.187622,1524.640015 2026.134155,1528.262817 2019.539795,1533.666626 
	C1991.510742,1556.635498 1982.490112,1595.856812 1996.548828,1630.789795 
	C2009.923828,1664.023804 2044.916626,1684.922241 2082.122559,1682.758423 
	C2133.931641,1679.745239 2180.063477,1617.960205 2150.635254,1559.613770 
	C2131.693359,1522.058105 2086.124756,1503.365967 2041.569946,1520.197998 
z"/>
<path fill="#FEFDFD" opacity="1.000000" stroke="none" 
		d="
M1618.396240,1672.651855 
	C1650.024414,1668.694092 1680.739380,1664.827637 1711.461670,1661.021362 
	C1717.404541,1660.285156 1723.369873,1659.376587 1729.337036,1659.277100 
	C1736.933838,1659.150024 1740.504761,1661.308960 1741.359253,1668.492676 
	C1743.517334,1686.637085 1745.093262,1704.876587 1746.088623,1723.122314 
	C1746.555664,1731.684326 1741.342285,1737.775757 1733.093262,1739.981812 
	C1724.120239,1742.381592 1714.951904,1744.264160 1705.755371,1745.581543 
	C1593.257690,1761.695679 1480.108765,1763.797974 1366.760132,1760.705444 
	C1324.470581,1759.551758 1282.204590,1757.513062 1239.932251,1755.771851 
	C1234.964233,1755.567383 1229.962036,1755.003052 1225.086426,1754.042847 
	C1218.500122,1752.745728 1214.302124,1748.437744 1213.784058,1741.746094 
	C1212.416870,1724.087891 1212.846191,1706.416016 1217.070801,1689.157959 
	C1219.576660,1678.920166 1225.843872,1674.528442 1237.969482,1674.162109 
	C1250.606079,1673.780151 1263.295654,1674.023926 1275.924683,1674.696045 
	C1346.149658,1678.433350 1416.405029,1680.645386 1486.723145,1678.539917 
	C1526.677490,1677.343750 1566.611084,1675.450684 1606.551880,1673.817261 
	C1610.204590,1673.667969 1613.841431,1673.124512 1618.396240,1672.651855 
z"/>
<path fill="#7D0101" opacity="1.000000" stroke="none" 
		d="
M752.609863,1583.890625 
	C728.133301,1579.187256 705.307983,1572.168091 683.845276,1561.153076 
	C632.978455,1535.047485 600.064331,1493.424683 580.209900,1440.656250 
	C569.245300,1411.514771 563.187073,1381.209717 560.147827,1350.327271 
	C557.214294,1320.518921 554.332886,1290.681030 552.608582,1260.787964 
	C551.692322,1244.903687 553.082153,1228.866455 553.773193,1212.913086 
	C555.648438,1169.618774 559.263245,1126.538574 572.050964,1084.811646 
	C584.027283,1045.732300 602.762756,1010.357483 631.425293,980.880188 
	C679.244019,931.701965 738.394897,911.517273 805.989563,915.029480 
	C903.507690,920.096436 976.624207,985.124451 1004.508301,1069.395508 
	C1012.986694,1095.018799 1020.378174,1120.903931 1022.927673,1147.920288 
	C1023.208862,1150.900635 1023.634827,1153.887085 1023.636963,1156.870972 
	C1023.673889,1208.513184 1024.711670,1260.183716 1023.323547,1311.788818 
	C1022.150757,1355.389893 1017.697937,1398.887207 1001.918640,1440.186157 
	C975.315491,1509.814575 927.682800,1557.496460 855.341187,1578.751831 
	C821.865845,1588.587646 787.813477,1589.737183 752.609863,1583.890625 
z"/>
<path fill="#7D0101" opacity="1.000000" stroke="none" 
		d="
M2042.318481,1519.982666 
	C2086.124756,1503.365967 2131.693359,1522.058105 2150.635254,1559.613770 
	C2180.063477,1617.960205 2133.931641,1679.745239 2082.122559,1682.758423 
	C2044.916626,1684.922241 2009.923828,1664.023804 1996.548828,1630.789795 
	C1982.490112,1595.856812 1991.510742,1556.635498 2019.539795,1533.666626 
	C2026.134155,1528.262817 2034.187622,1524.640015 2042.318481,1519.982666 
z"/>
  </g>
</svg>